<mxfile host="app.diagrams.net" modified="2023-09-29T17:01:44.144Z" agent="Mozilla/5.0 (Windows NT 10.0; Win64; x64) AppleWebKit/537.36 (KHTML, like Gecko) Chrome/117.0.0.0 Safari/537.36" etag="KFTfrPIJqzzkymE5lwi5" version="22.0.0" type="github">
  <diagram name="Page-1" id="VQkdfmnfzzS07gL8s0ip">
    <mxGraphModel dx="1050" dy="566" grid="1" gridSize="10" guides="1" tooltips="1" connect="1" arrows="1" fold="1" page="1" pageScale="1" pageWidth="850" pageHeight="1100" background="#666666" math="0" shadow="0">
      <root>
        <mxCell id="0" />
        <mxCell id="1" parent="0" />
        <mxCell id="tFPNT0vVDYACMj4LjYBP-1" value="" style="shape=cylinder3;whiteSpace=wrap;html=1;boundedLbl=1;backgroundOutline=1;size=15;fillColor=#0050ef;fontColor=#ffffff;strokeColor=#FFFFFF;strokeWidth=2.5;dashed=1;" vertex="1" parent="1">
          <mxGeometry x="340" y="210" width="130" height="170" as="geometry" />
        </mxCell>
      </root>
    </mxGraphModel>
  </diagram>
</mxfile>
